<svg width="38" height="38" viewBox="0 0 38 38" fill="none" xmlns="http://www.w3.org/2000/svg">
<path d="M18.9999 22.1667H20.5833C22.3249 22.1667 23.7499 20.7417 23.7499 19.0001V3.16675H9.49994C7.12494 3.16675 5.05079 4.4809 3.97412 6.41256" stroke="#FCFCFC" stroke-width="1.5" stroke-linecap="round" stroke-linejoin="round"/>
<path d="M3.16663 26.9167C3.16663 29.5451 5.28829 31.6667 7.91663 31.6667H9.49996C9.49996 29.9251 10.925 28.5001 12.6666 28.5001C14.4083 28.5001 15.8333 29.9251 15.8333 31.6667H22.1666C22.1666 29.9251 23.5916 28.5001 25.3333 28.5001C27.075 28.5001 28.5 29.9251 28.5 31.6667H30.0833C32.7116 31.6667 34.8333 29.5451 34.8333 26.9167V22.1667H30.0833C29.2125 22.1667 28.5 21.4542 28.5 20.5834V15.8334C28.5 14.9626 29.2125 14.2501 30.0833 14.2501H32.1258L29.4183 9.51593C28.8483 8.53426 27.8033 7.91675 26.6633 7.91675H23.75V19.0001C23.75 20.7417 22.325 22.1667 20.5833 22.1667H19" stroke="#FCFCFC" stroke-width="1.5" stroke-linecap="round" stroke-linejoin="round"/>
<path d="M12.6667 34.8333C14.4156 34.8333 15.8333 33.4156 15.8333 31.6667C15.8333 29.9178 14.4156 28.5 12.6667 28.5C10.9178 28.5 9.5 29.9178 9.5 31.6667C9.5 33.4156 10.9178 34.8333 12.6667 34.8333Z" stroke="#FCFCFC" stroke-width="1.5" stroke-linecap="round" stroke-linejoin="round"/>
<path d="M25.3333 34.8333C27.0822 34.8333 28.5 33.4156 28.5 31.6667C28.5 29.9178 27.0822 28.5 25.3333 28.5C23.5844 28.5 22.1666 29.9178 22.1666 31.6667C22.1666 33.4156 23.5844 34.8333 25.3333 34.8333Z" stroke="#FCFCFC" stroke-width="1.5" stroke-linecap="round" stroke-linejoin="round"/>
<path d="M34.8333 19V22.1667H30.0833C29.2125 22.1667 28.5 21.4542 28.5 20.5833V15.8333C28.5 14.9625 29.2125 14.25 30.0833 14.25H32.1258L34.8333 19Z" stroke="#FCFCFC" stroke-width="1.5" stroke-linecap="round" stroke-linejoin="round"/>
<path d="M3.16663 12.6667H12.6666" stroke="#FCFCFC" stroke-width="1.5" stroke-linecap="round" stroke-linejoin="round"/>
<path d="M3.16663 17.4167H9.49996" stroke="#FCFCFC" stroke-width="1.5" stroke-linecap="round" stroke-linejoin="round"/>
<path d="M3.16663 22.1667H6.33329" stroke="#FCFCFC" stroke-width="1.5" stroke-linecap="round" stroke-linejoin="round"/>
</svg>
