<svg width="38" height="38" viewBox="0 0 38 38" fill="none" xmlns="http://www.w3.org/2000/svg">
<path d="M34.8333 9.50008V13.3317C34.8333 15.8334 33.2499 17.4167 30.7482 17.4167H25.3333V6.34925C25.3333 4.59175 26.7741 3.16675 28.5316 3.16675C30.2574 3.18258 31.8408 3.87925 32.9808 5.01925C34.1208 6.17508 34.8333 7.75841 34.8333 9.50008Z" stroke="#FCFCFC" stroke-width="1.5" stroke-miterlimit="10" stroke-linecap="round" stroke-linejoin="round"/>
<path d="M3.16675 11.0834V33.2501C3.16675 34.5642 4.65504 35.3084 5.70004 34.5167L8.40758 32.4901C9.04091 32.0151 9.92759 32.0784 10.4976 32.6484L13.1259 35.2926C13.7434 35.9101 14.7568 35.9101 15.3743 35.2926L18.0343 32.6326C18.5884 32.0784 19.4751 32.0151 20.0926 32.4901L22.8001 34.5167C23.8451 35.2926 25.3334 34.5484 25.3334 33.2501V6.33341C25.3334 4.59175 26.7584 3.16675 28.5001 3.16675H11.0834H9.50008C4.75008 3.16675 3.16675 6.00091 3.16675 9.50008V11.0834Z" stroke="#FCFCFC" stroke-width="1.5" stroke-miterlimit="10" stroke-linecap="round" stroke-linejoin="round"/>
<path d="M9.5 14.25H19" stroke="#FCFCFC" stroke-width="1.5" stroke-linecap="round" stroke-linejoin="round"/>
<path d="M10.6875 20.5833H17.8125" stroke="#FCFCFC" stroke-width="1.5" stroke-linecap="round" stroke-linejoin="round"/>
</svg>
