<svg width="38" height="38" viewBox="0 0 38 38" fill="none" xmlns="http://www.w3.org/2000/svg">
<path d="M30.8751 19.7916C30.8751 17.6066 32.6484 15.8333 34.8334 15.8333V14.2499C34.8334 7.91659 33.2501 6.33325 26.9167 6.33325H11.0834C4.75008 6.33325 3.16675 7.91659 3.16675 14.2499V15.0416C5.35175 15.0416 7.12508 16.8149 7.12508 18.9999C7.12508 21.1849 5.35175 22.9583 3.16675 22.9583V23.7499C3.16675 30.0833 4.75008 31.6666 11.0834 31.6666H26.9167C33.2501 31.6666 34.8334 30.0833 34.8334 23.7499C32.6484 23.7499 30.8751 21.9766 30.8751 19.7916Z" stroke="#FCFCFC" stroke-width="1.5" stroke-linecap="round" stroke-linejoin="round"/>
<path d="M14.25 23.3542L23.75 13.8542" stroke="#FCFCFC" stroke-width="1.5" stroke-linecap="round" stroke-linejoin="round"/>
<path d="M23.7412 23.3542H23.7554" stroke="#FCFCFC" stroke-width="2" stroke-linecap="round" stroke-linejoin="round"/>
<path d="M14.2412 14.6459H14.2554" stroke="#FCFCFC" stroke-width="2" stroke-linecap="round" stroke-linejoin="round"/>
</svg>
